<mxfile host="app.diagrams.net" modified="2020-12-16T12:49:36.262Z" agent="5.0 (Windows NT 10.0; Win64; x64) AppleWebKit/537.36 (KHTML, like Gecko) Chrome/87.0.4280.88 Safari/537.36" etag="0rpyKn10i4gYfBf_GZGr" version="14.0.3" type="github">
  <diagram id="C5RBs43oDa-KdzZeNtuy" name="Page-1">
    <mxGraphModel dx="1952" dy="1174" grid="1" gridSize="10" guides="1" tooltips="1" connect="1" arrows="1" fold="1" page="1" pageScale="1" pageWidth="827" pageHeight="1169" math="0" shadow="0">
      <root>
        <mxCell id="WIyWlLk6GJQsqaUBKTNV-0" />
        <mxCell id="WIyWlLk6GJQsqaUBKTNV-1" parent="WIyWlLk6GJQsqaUBKTNV-0" />
        <mxCell id="9-I93YVuqIfc7QUDXA5F-3" value="&lt;font style=&quot;font-size: 18px&quot;&gt;&lt;b&gt;START&lt;/b&gt;&lt;/font&gt;" style="ellipse;whiteSpace=wrap;html=1;" vertex="1" parent="WIyWlLk6GJQsqaUBKTNV-1">
          <mxGeometry x="302.5" y="170" width="75" height="50" as="geometry" />
        </mxCell>
        <mxCell id="9-I93YVuqIfc7QUDXA5F-4" value="" style="endArrow=classic;html=1;exitX=0.5;exitY=1;exitDx=0;exitDy=0;" edge="1" parent="WIyWlLk6GJQsqaUBKTNV-1" source="9-I93YVuqIfc7QUDXA5F-3" target="9-I93YVuqIfc7QUDXA5F-5">
          <mxGeometry width="50" height="50" relative="1" as="geometry">
            <mxPoint x="340" y="330" as="sourcePoint" />
            <mxPoint x="340" y="280" as="targetPoint" />
          </mxGeometry>
        </mxCell>
        <mxCell id="9-I93YVuqIfc7QUDXA5F-5" value="&lt;font style=&quot;font-size: 18px&quot;&gt;Input A, N&lt;/font&gt;" style="shape=parallelogram;perimeter=parallelogramPerimeter;whiteSpace=wrap;html=1;fixedSize=1;" vertex="1" parent="WIyWlLk6GJQsqaUBKTNV-1">
          <mxGeometry x="283.75" y="270" width="112.5" height="70" as="geometry" />
        </mxCell>
        <mxCell id="9-I93YVuqIfc7QUDXA5F-6" value="" style="endArrow=classic;html=1;exitX=0.5;exitY=1;exitDx=0;exitDy=0;entryX=0.5;entryY=0;entryDx=0;entryDy=0;" edge="1" parent="WIyWlLk6GJQsqaUBKTNV-1" source="9-I93YVuqIfc7QUDXA5F-5" target="9-I93YVuqIfc7QUDXA5F-8">
          <mxGeometry width="50" height="50" relative="1" as="geometry">
            <mxPoint x="340" y="320" as="sourcePoint" />
            <mxPoint x="340" y="360" as="targetPoint" />
          </mxGeometry>
        </mxCell>
        <mxCell id="9-I93YVuqIfc7QUDXA5F-7" value="&lt;font style=&quot;font-size: 18px&quot;&gt;i &amp;lt;= N&lt;/font&gt;" style="rhombus;whiteSpace=wrap;html=1;" vertex="1" parent="WIyWlLk6GJQsqaUBKTNV-1">
          <mxGeometry x="300" y="450" width="80" height="80" as="geometry" />
        </mxCell>
        <mxCell id="9-I93YVuqIfc7QUDXA5F-8" value="&lt;font style=&quot;font-size: 18px&quot;&gt;i = 3&lt;/font&gt;" style="rounded=0;whiteSpace=wrap;html=1;" vertex="1" parent="WIyWlLk6GJQsqaUBKTNV-1">
          <mxGeometry x="310" y="380" width="60" height="30" as="geometry" />
        </mxCell>
        <mxCell id="9-I93YVuqIfc7QUDXA5F-9" value="" style="endArrow=classic;html=1;exitX=0.5;exitY=1;exitDx=0;exitDy=0;entryX=0.5;entryY=0;entryDx=0;entryDy=0;" edge="1" parent="WIyWlLk6GJQsqaUBKTNV-1" source="9-I93YVuqIfc7QUDXA5F-8" target="9-I93YVuqIfc7QUDXA5F-7">
          <mxGeometry width="50" height="50" relative="1" as="geometry">
            <mxPoint x="340" y="320" as="sourcePoint" />
            <mxPoint x="390" y="270" as="targetPoint" />
          </mxGeometry>
        </mxCell>
        <mxCell id="9-I93YVuqIfc7QUDXA5F-10" value="" style="endArrow=classic;html=1;exitX=1;exitY=0.5;exitDx=0;exitDy=0;" edge="1" parent="WIyWlLk6GJQsqaUBKTNV-1" source="9-I93YVuqIfc7QUDXA5F-7">
          <mxGeometry width="50" height="50" relative="1" as="geometry">
            <mxPoint x="340" y="470" as="sourcePoint" />
            <mxPoint x="440" y="490" as="targetPoint" />
          </mxGeometry>
        </mxCell>
        <mxCell id="9-I93YVuqIfc7QUDXA5F-12" value="&lt;font style=&quot;font-size: 18px&quot;&gt;j = i -1&amp;nbsp;&amp;nbsp;&lt;br&gt;curVal = A[i]&lt;br&gt;&lt;/font&gt;" style="rounded=0;whiteSpace=wrap;html=1;" vertex="1" parent="WIyWlLk6GJQsqaUBKTNV-1">
          <mxGeometry x="280" y="570" width="120" height="60" as="geometry" />
        </mxCell>
        <mxCell id="9-I93YVuqIfc7QUDXA5F-13" value="&lt;font style=&quot;font-size: 18px&quot;&gt;A[j+1] = A[j]&lt;br&gt;j = j - 1&lt;/font&gt;" style="rounded=0;whiteSpace=wrap;html=1;" vertex="1" parent="WIyWlLk6GJQsqaUBKTNV-1">
          <mxGeometry x="280" y="890" width="120" height="60" as="geometry" />
        </mxCell>
        <mxCell id="9-I93YVuqIfc7QUDXA5F-15" value="&lt;font style=&quot;font-size: 18px&quot;&gt;&lt;b&gt;NO&lt;/b&gt;&lt;/font&gt;" style="text;html=1;strokeColor=none;fillColor=none;align=center;verticalAlign=middle;whiteSpace=wrap;rounded=0;" vertex="1" parent="WIyWlLk6GJQsqaUBKTNV-1">
          <mxGeometry x="390" y="460" width="40" height="20" as="geometry" />
        </mxCell>
        <mxCell id="9-I93YVuqIfc7QUDXA5F-16" value="&lt;font style=&quot;font-size: 18px&quot;&gt;Output A&lt;/font&gt;" style="shape=parallelogram;perimeter=parallelogramPerimeter;whiteSpace=wrap;html=1;fixedSize=1;" vertex="1" parent="WIyWlLk6GJQsqaUBKTNV-1">
          <mxGeometry x="430" y="460" width="120" height="60" as="geometry" />
        </mxCell>
        <mxCell id="9-I93YVuqIfc7QUDXA5F-17" value="" style="endArrow=classic;html=1;exitX=0.5;exitY=1;exitDx=0;exitDy=0;entryX=0.5;entryY=0;entryDx=0;entryDy=0;" edge="1" parent="WIyWlLk6GJQsqaUBKTNV-1" source="9-I93YVuqIfc7QUDXA5F-7" target="9-I93YVuqIfc7QUDXA5F-12">
          <mxGeometry width="50" height="50" relative="1" as="geometry">
            <mxPoint x="340" y="470" as="sourcePoint" />
            <mxPoint x="350" y="560" as="targetPoint" />
          </mxGeometry>
        </mxCell>
        <mxCell id="9-I93YVuqIfc7QUDXA5F-18" value="" style="endArrow=classic;html=1;exitX=0.5;exitY=1;exitDx=0;exitDy=0;entryX=0.5;entryY=0;entryDx=0;entryDy=0;" edge="1" parent="WIyWlLk6GJQsqaUBKTNV-1" source="9-I93YVuqIfc7QUDXA5F-12" target="9-I93YVuqIfc7QUDXA5F-19">
          <mxGeometry width="50" height="50" relative="1" as="geometry">
            <mxPoint x="340" y="660" as="sourcePoint" />
            <mxPoint x="350" y="710" as="targetPoint" />
          </mxGeometry>
        </mxCell>
        <mxCell id="9-I93YVuqIfc7QUDXA5F-24" style="edgeStyle=orthogonalEdgeStyle;rounded=0;orthogonalLoop=1;jettySize=auto;html=1;exitX=0.5;exitY=1;exitDx=0;exitDy=0;entryX=0.5;entryY=0;entryDx=0;entryDy=0;" edge="1" parent="WIyWlLk6GJQsqaUBKTNV-1" source="9-I93YVuqIfc7QUDXA5F-19" target="9-I93YVuqIfc7QUDXA5F-13">
          <mxGeometry relative="1" as="geometry" />
        </mxCell>
        <mxCell id="9-I93YVuqIfc7QUDXA5F-27" style="edgeStyle=orthogonalEdgeStyle;rounded=0;orthogonalLoop=1;jettySize=auto;html=1;exitX=1;exitY=0.5;exitDx=0;exitDy=0;" edge="1" parent="WIyWlLk6GJQsqaUBKTNV-1" source="9-I93YVuqIfc7QUDXA5F-19" target="9-I93YVuqIfc7QUDXA5F-28">
          <mxGeometry relative="1" as="geometry">
            <mxPoint x="490" y="755" as="targetPoint" />
          </mxGeometry>
        </mxCell>
        <mxCell id="9-I93YVuqIfc7QUDXA5F-19" value="&lt;font style=&quot;font-size: 18px&quot;&gt;j &amp;gt;= 1 &lt;br&gt;and&amp;nbsp;&lt;br&gt;A[j] &amp;gt; curVal&lt;/font&gt;" style="rhombus;whiteSpace=wrap;html=1;" vertex="1" parent="WIyWlLk6GJQsqaUBKTNV-1">
          <mxGeometry x="257.5" y="670" width="165" height="170" as="geometry" />
        </mxCell>
        <mxCell id="9-I93YVuqIfc7QUDXA5F-20" value="&lt;b&gt;&lt;font style=&quot;font-size: 18px&quot;&gt;END&lt;/font&gt;&lt;/b&gt;" style="ellipse;whiteSpace=wrap;html=1;" vertex="1" parent="WIyWlLk6GJQsqaUBKTNV-1">
          <mxGeometry x="600" y="470" width="60" height="40" as="geometry" />
        </mxCell>
        <mxCell id="9-I93YVuqIfc7QUDXA5F-21" value="" style="endArrow=classic;html=1;exitX=1;exitY=0.5;exitDx=0;exitDy=0;entryX=0;entryY=0.5;entryDx=0;entryDy=0;" edge="1" parent="WIyWlLk6GJQsqaUBKTNV-1" source="9-I93YVuqIfc7QUDXA5F-16" target="9-I93YVuqIfc7QUDXA5F-20">
          <mxGeometry width="50" height="50" relative="1" as="geometry">
            <mxPoint x="340" y="620" as="sourcePoint" />
            <mxPoint x="390" y="570" as="targetPoint" />
          </mxGeometry>
        </mxCell>
        <mxCell id="9-I93YVuqIfc7QUDXA5F-25" value="&lt;font style=&quot;font-size: 18px&quot;&gt;&lt;b&gt;YES&lt;/b&gt;&lt;/font&gt;" style="text;html=1;strokeColor=none;fillColor=none;align=center;verticalAlign=middle;whiteSpace=wrap;rounded=0;" vertex="1" parent="WIyWlLk6GJQsqaUBKTNV-1">
          <mxGeometry x="350" y="530" width="40" height="20" as="geometry" />
        </mxCell>
        <mxCell id="9-I93YVuqIfc7QUDXA5F-26" value="&lt;font style=&quot;font-size: 18px&quot;&gt;&lt;b&gt;YES&lt;/b&gt;&lt;/font&gt;" style="text;html=1;strokeColor=none;fillColor=none;align=center;verticalAlign=middle;whiteSpace=wrap;rounded=0;" vertex="1" parent="WIyWlLk6GJQsqaUBKTNV-1">
          <mxGeometry x="356.25" y="840" width="40" height="20" as="geometry" />
        </mxCell>
        <mxCell id="9-I93YVuqIfc7QUDXA5F-33" style="edgeStyle=orthogonalEdgeStyle;rounded=0;orthogonalLoop=1;jettySize=auto;html=1;exitX=1;exitY=0.5;exitDx=0;exitDy=0;entryX=0;entryY=0.5;entryDx=0;entryDy=0;" edge="1" parent="WIyWlLk6GJQsqaUBKTNV-1" source="9-I93YVuqIfc7QUDXA5F-28" target="9-I93YVuqIfc7QUDXA5F-7">
          <mxGeometry relative="1" as="geometry">
            <Array as="points">
              <mxPoint x="670" y="755" />
              <mxPoint x="670" y="980" />
              <mxPoint x="110" y="980" />
              <mxPoint x="110" y="490" />
            </Array>
          </mxGeometry>
        </mxCell>
        <mxCell id="9-I93YVuqIfc7QUDXA5F-28" value="&lt;font style=&quot;font-size: 18px&quot;&gt;A[j-1] = curVal&lt;/font&gt;" style="rounded=0;whiteSpace=wrap;html=1;" vertex="1" parent="WIyWlLk6GJQsqaUBKTNV-1">
          <mxGeometry x="480" y="725" width="120" height="60" as="geometry" />
        </mxCell>
        <mxCell id="9-I93YVuqIfc7QUDXA5F-30" value="&lt;font style=&quot;font-size: 18px&quot;&gt;&lt;b&gt;NO&lt;/b&gt;&lt;/font&gt;" style="text;html=1;strokeColor=none;fillColor=none;align=center;verticalAlign=middle;whiteSpace=wrap;rounded=0;" vertex="1" parent="WIyWlLk6GJQsqaUBKTNV-1">
          <mxGeometry x="422.5" y="725" width="40" height="20" as="geometry" />
        </mxCell>
      </root>
    </mxGraphModel>
  </diagram>
</mxfile>
